<?xml version="1.0" encoding="UTF-8" standalone="no"?>
<!-- Created with Inkscape (http://www.inkscape.org/) -->

<svg
   width="23.500414mm"
   height="8.3011818mm"
   viewBox="0 0 23.500414 8.3011818"
   version="1.1"
   id="svg278"
   xml:space="preserve"
   xmlns="http://www.w3.org/2000/svg"
   xmlns:svg="http://www.w3.org/2000/svg"><defs
     id="defs275"><filter
       id="mask-powermask-path-effect52176_inverse"
       style="color-interpolation-filters:sRGB"
       height="100"
       width="100"
       x="-50"
       y="-50"><feColorMatrix
         id="mask-powermask-path-effect52176_primitive1"
         values="1"
         type="saturate"
         result="fbSourceGraphic" /><feColorMatrix
         id="mask-powermask-path-effect52176_primitive2"
         values="-1 0 0 0 1 0 -1 0 0 1 0 0 -1 0 1 0 0 0 1 0 "
         in="fbSourceGraphic" /></filter><mask
       maskUnits="userSpaceOnUse"
       id="mask-powermask-path-effect53630"><path
         id="mask-powermask-path-effect53630_box"
         style="fill:#ffffff;fill-opacity:1"
         d="m 16.760014,5.5854368 h 6.657258 V 16.278985 h -6.657258 z" /><g
         id="g53628"
         mask="none"><rect
           style="fill:#000000;fill-opacity:1;stroke:none;stroke-width:0.0781383;stroke-opacity:0.827451"
           id="rect53612"
           width="0.35880122"
           height="1.0130351"
           x="18.646456"
           y="14.268892"
           d="m 18.646456,14.268892 h 0.358801 v 1.013035 h -0.358801 z" /><rect
           style="fill:#000000;fill-opacity:1;stroke:none;stroke-width:0.0781383;stroke-opacity:0.827451"
           id="rect53614"
           width="0.35880122"
           height="1.0130351"
           x="21.166632"
           y="14.268892"
           d="m 21.166632,14.268892 h 0.358801 v 1.013035 h -0.358801 z" /><rect
           style="fill:#000000;fill-opacity:1;stroke:none;stroke-width:0.0781383;stroke-opacity:0.827451"
           id="rect53616"
           width="0.35880122"
           height="1.0130351"
           x="20.567841"
           y="6.5862045"
           d="m 20.567841,6.5862045 h 0.358801 v 1.0130351 h -0.358801 z" /><rect
           style="fill:#000000;fill-opacity:1;stroke:none;stroke-width:0.0781383;stroke-opacity:0.827451"
           id="rect53618"
           width="0.35880122"
           height="1.0130351"
           x="19.259373"
           y="6.5862045"
           d="m 19.259373,6.5862045 h 0.358801 v 1.0130351 h -0.358801 z" /><rect
           style="fill:#000000;fill-opacity:1;stroke:none;stroke-width:0.04204;stroke-opacity:0.827451"
           id="rect53620"
           width="0.29296777"
           height="0.35913399"
           x="22.137611"
           y="6.5681553"
           d="m 22.137611,6.5681553 h 0.292968 v 0.359134 h -0.292968 z" /><rect
           style="fill:#000000;fill-opacity:1;stroke:none;stroke-width:0.04204;stroke-opacity:0.827451"
           id="rect53622"
           width="0.29296777"
           height="0.35913399"
           x="17.746706"
           y="6.5681553"
           d="m 17.746706,6.5681553 h 0.292968 v 0.359134 h -0.292968 z" /><rect
           style="fill:#000000;fill-opacity:1;stroke:none;stroke-width:0.04204;stroke-opacity:0.827451"
           id="rect53624"
           width="0.29296777"
           height="0.35913399"
           x="22.137611"
           y="13.774713"
           d="m 22.137611,13.774713 h 0.292968 v 0.359134 h -0.292968 z" /><rect
           style="fill:#000000;fill-opacity:1;stroke:none;stroke-width:0.04204;stroke-opacity:0.827451"
           id="rect53626"
           width="0.29296777"
           height="0.35913399"
           x="17.746706"
           y="13.774713"
           d="m 17.746706,13.774713 h 0.292968 v 0.359134 h -0.292968 z" /></g></mask><filter
       id="mask-powermask-path-effect53630_inverse"
       style="color-interpolation-filters:sRGB"
       height="100"
       width="100"
       x="-50"
       y="-50"><feColorMatrix
         id="mask-powermask-path-effect53630_primitive1"
         values="1"
         type="saturate"
         result="fbSourceGraphic" /><feColorMatrix
         id="mask-powermask-path-effect53630_primitive2"
         values="-1 0 0 0 1 0 -1 0 0 1 0 0 -1 0 1 0 0 0 1 0 "
         in="fbSourceGraphic" /></filter><filter
       id="mask-powermask-path-effect69689_inverse"
       style="color-interpolation-filters:sRGB"
       height="100"
       width="100"
       x="-50"
       y="-50"><feColorMatrix
         id="mask-powermask-path-effect69689_primitive1"
         values="1"
         type="saturate"
         result="fbSourceGraphic" /><feColorMatrix
         id="mask-powermask-path-effect69689_primitive2"
         values="-1 0 0 0 1 0 -1 0 0 1 0 0 -1 0 1 0 0 0 1 0 "
         in="fbSourceGraphic" /></filter><filter
       id="mask-powermask-path-effect69784_inverse"
       style="color-interpolation-filters:sRGB"
       height="100"
       width="100"
       x="-50"
       y="-50"><feColorMatrix
         id="mask-powermask-path-effect69784_primitive1"
         values="1"
         type="saturate"
         result="fbSourceGraphic" /><feColorMatrix
         id="mask-powermask-path-effect69784_primitive2"
         values="-1 0 0 0 1 0 -1 0 0 1 0 0 -1 0 1 0 0 0 1 0 "
         in="fbSourceGraphic" /></filter><filter
       id="mask-powermask-path-effect69800_inverse"
       style="color-interpolation-filters:sRGB"
       height="100"
       width="100"
       x="-50"
       y="-50"><feColorMatrix
         id="mask-powermask-path-effect69800_primitive1"
         values="1"
         type="saturate"
         result="fbSourceGraphic" /><feColorMatrix
         id="mask-powermask-path-effect69800_primitive2"
         values="-1 0 0 0 1 0 -1 0 0 1 0 0 -1 0 1 0 0 0 1 0 "
         in="fbSourceGraphic" /></filter><filter
       id="mask-powermask-path-effect69810_inverse"
       style="color-interpolation-filters:sRGB"
       height="100"
       width="100"
       x="-50"
       y="-50"><feColorMatrix
         id="mask-powermask-path-effect69810_primitive1"
         values="1"
         type="saturate"
         result="fbSourceGraphic" /><feColorMatrix
         id="mask-powermask-path-effect69810_primitive2"
         values="-1 0 0 0 1 0 -1 0 0 1 0 0 -1 0 1 0 0 0 1 0 "
         in="fbSourceGraphic" /></filter><filter
       id="mask-powermask-path-effect69830_inverse"
       style="color-interpolation-filters:sRGB"
       height="100"
       width="100"
       x="-50"
       y="-50"><feColorMatrix
         id="mask-powermask-path-effect69830_primitive1"
         values="1"
         type="saturate"
         result="fbSourceGraphic" /><feColorMatrix
         id="mask-powermask-path-effect69830_primitive2"
         values="-1 0 0 0 1 0 -1 0 0 1 0 0 -1 0 1 0 0 0 1 0 "
         in="fbSourceGraphic" /></filter><filter
       id="mask-powermask-path-effect69844_inverse"
       style="color-interpolation-filters:sRGB"
       height="100"
       width="100"
       x="-50"
       y="-50"><feColorMatrix
         id="mask-powermask-path-effect69844_primitive1"
         values="1"
         type="saturate"
         result="fbSourceGraphic" /><feColorMatrix
         id="mask-powermask-path-effect69844_primitive2"
         values="-1 0 0 0 1 0 -1 0 0 1 0 0 -1 0 1 0 0 0 1 0 "
         in="fbSourceGraphic" /></filter><clipPath
       clipPathUnits="userSpaceOnUse"
       id="clipPath69958"><rect
         style="fill:#000000;fill-opacity:1;stroke:none;stroke-width:0.254;stroke-dasharray:none;stroke-opacity:1"
         id="rect69960"
         width="1.0583333"
         height="2.1910808"
         x="2.2138183"
         y="6.5897789"
         transform="rotate(90)" /></clipPath></defs><g
     id="layer1"
     transform="translate(-1.4508437,-9.8628388)"><rect
       style="fill:#108954;fill-opacity:1;stroke-width:0.132"
       id="rect9652"
       width="8.3000002"
       height="23.5"
       x="9.863287"
       y="-24.951015"
       transform="rotate(90)" /><g
       id="rect38004"
       transform="rotate(90)"><path
         style="color:#000000;fill:#207136;stroke-width:0.127;-inkscape-stroke:none"
         d="m 11.1274,-24.887758 h 5.1 v 11.3 h -5.1 z"
         id="path786" /><path
         style="color:#000000;fill:#ffffff;-inkscape-stroke:none"
         d="m 11.064453,-24.951172 v 0.0625 11.365234 h 5.226563 v -11.427734 z m 0.126953,0.126953 h 4.972656 v 11.173828 h -4.972656 z"
         id="path788" /></g><path
       style="fill:#d8d0b9;fill-opacity:1;stroke:none;stroke-width:0.132;stroke-opacity:0.827451"
       id="path100763"
       width="4.657258"
       height="8.6935482"
       x="17.760014"
       y="6.5854368"
       clip-path="none"
       mask="url(#mask-powermask-path-effect53630)"
       d="m 17.760014,6.5854368 h 4.657258 v 8.6935482 h -4.657258 z"
       transform="rotate(90,17.710916,11.299673)" /><rect
       style="fill:none;fill-opacity:1;stroke:#ffffff;stroke-width:0.127;stroke-dasharray:none;stroke-opacity:1"
       id="rect56597"
       width="1.1335926"
       height="2.4926736"
       x="16.226799"
       y="-20.261927"
       transform="rotate(90)" /><rect
       style="fill:none;fill-opacity:1;stroke:#ffffff;stroke-width:0.127;stroke-dasharray:none;stroke-opacity:1"
       id="rect56599"
       width="1.1335926"
       height="2.4926736"
       x="16.226799"
       y="-17.645031"
       transform="rotate(90)" /><path
       style="fill:#8c8c8c;fill-opacity:1;stroke:#ffe24d;stroke-width:0.252481;stroke-dasharray:none;stroke-opacity:1"
       id="connector0pin"
       d="m -7.348966,2.0774043 a 0.54212695,0.53415948 0 0 1 0.252591,0.6008463 0.54212695,0.53415948 0 0 1 -0.5236544,0.3959088 0.54212695,0.53415948 0 0 1 -0.5236545,-0.3959088 0.54212695,0.53415948 0 0 1 0.252591,-0.6008463"
       transform="translate(27.951537,7.6490205)"
       clip-path="url(#clipPath69958)" /><path
       style="fill:#8c8c8c;fill-opacity:1;stroke:#ffe24d;stroke-width:0.252481;stroke-dasharray:none;stroke-opacity:1"
       id="connector1pin"
       d="m -7.348966,2.0774043 a 0.54212695,0.53415948 0 0 1 0.252591,0.6008463 0.54212695,0.53415948 0 0 1 -0.5236544,0.3959088 0.54212695,0.53415948 0 0 1 -0.5236545,-0.3959088 0.54212695,0.53415948 0 0 1 0.252591,-0.6008463"
       transform="translate(25.403696,7.6490205)"
       clip-path="url(#clipPath69958)" /><path
       style="fill:#8c8c8c;fill-opacity:1;stroke:#ffe24d;stroke-width:0.252481;stroke-dasharray:none;stroke-opacity:1"
       id="connector2pin"
       d="m -7.348966,2.0774043 a 0.54212695,0.53415948 0 0 1 0.252591,0.6008463 0.54212695,0.53415948 0 0 1 -0.5236544,0.3959088 0.54212695,0.53415948 0 0 1 -0.5236545,-0.3959088 0.54212695,0.53415948 0 0 1 0.252591,-0.6008463"
       transform="translate(22.858308,7.6490205)"
       clip-path="url(#clipPath69958)" /><path
       style="fill:#8c8c8c;fill-opacity:1;stroke:#ffe24d;stroke-width:0.252481;stroke-dasharray:none;stroke-opacity:1"
       id="connector3pin"
       d="m -7.348966,2.0774043 a 0.54212695,0.53415948 0 0 1 0.252591,0.6008463 0.54212695,0.53415948 0 0 1 -0.5236544,0.3959088 0.54212695,0.53415948 0 0 1 -0.5236545,-0.3959088 0.54212695,0.53415948 0 0 1 0.252591,-0.6008463"
       transform="translate(20.310466,7.6490205)"
       clip-path="url(#clipPath69958)" /><path
       style="fill:#8c8c8c;fill-opacity:1;stroke:#ffe24d;stroke-width:0.252481;stroke-dasharray:none;stroke-opacity:1"
       id="connector4pin"
       d="m -7.348966,2.0774043 a 0.54212695,0.53415948 0 0 1 0.252591,0.6008463 0.54212695,0.53415948 0 0 1 -0.5236544,0.3959088 0.54212695,0.53415948 0 0 1 -0.5236545,-0.3959088 0.54212695,0.53415948 0 0 1 0.252591,-0.6008463"
       transform="translate(17.783696,7.6490205)"
       clip-path="url(#clipPath69958)" /><path
       style="fill:#8c8c8c;fill-opacity:1;stroke:#ffe24d;stroke-width:0.252481;stroke-dasharray:none;stroke-opacity:1"
       id="connector5pin"
       d="m -7.348966,2.0774043 a 0.54212695,0.53415948 0 0 1 0.252591,0.6008463 0.54212695,0.53415948 0 0 1 -0.5236544,0.3959088 0.54212695,0.53415948 0 0 1 -0.5236545,-0.3959088 0.54212695,0.53415948 0 0 1 0.252591,-0.6008463"
       transform="translate(15.235854,7.6490205)"
       clip-path="url(#clipPath69958)" /><path
       style="fill:#8c8c8c;fill-opacity:1;stroke:#ffe24d;stroke-width:0.252481;stroke-dasharray:none;stroke-opacity:1"
       id="connector6pin"
       d="m -7.348966,2.0774043 a 0.54212695,0.53415948 0 0 1 0.252591,0.6008463 0.54212695,0.53415948 0 0 1 -0.5236544,0.3959088 0.54212695,0.53415948 0 0 1 -0.5236545,-0.3959088 0.54212695,0.53415948 0 0 1 0.252591,-0.6008463"
       transform="translate(12.690466,7.6490205)"
       clip-path="url(#clipPath69958)" /><path
       style="fill:#8c8c8c;fill-opacity:1;stroke:#ffe24d;stroke-width:0.252481;stroke-dasharray:none;stroke-opacity:1"
       id="connector7pin"
       d="m -7.348966,2.0774043 a 0.54212695,0.53415948 0 0 1 0.252591,0.6008463 0.54212695,0.53415948 0 0 1 -0.5236544,0.3959088 0.54212695,0.53415948 0 0 1 -0.5236545,-0.3959088 0.54212695,0.53415948 0 0 1 0.252591,-0.6008463"
       transform="translate(10.142625,7.6490205)"
       clip-path="url(#clipPath69958)" /><path
       style="fill:#8c8c8c;fill-opacity:1;stroke:#ffe24d;stroke-width:0.252481;stroke-dasharray:none;stroke-opacity:1"
       id="connector8pin"
       d="m -7.348966,2.0774043 a 0.54212695,0.53415948 0 0 1 0.252591,0.6008463 0.54212695,0.53415948 0 0 1 -0.5236544,0.3959088 0.54212695,0.53415948 0 0 1 -0.5236545,-0.3959088 0.54212695,0.53415948 0 0 1 0.252591,-0.6008463"
       transform="matrix(1,0,0,-1,10.142625,20.376498)"
       clip-path="url(#clipPath69958)" /><path
       style="fill:#8c8c8c;fill-opacity:1;stroke:#ffe24d;stroke-width:0.252481;stroke-dasharray:none;stroke-opacity:1"
       id="connector9pin"
       d="m -7.348966,2.0774043 a 0.54212695,0.53415948 0 0 1 0.252591,0.6008463 0.54212695,0.53415948 0 0 1 -0.5236544,0.3959088 0.54212695,0.53415948 0 0 1 -0.5236545,-0.3959088 0.54212695,0.53415948 0 0 1 0.252591,-0.6008463"
       transform="matrix(1,0,0,-1,12.690466,20.376498)"
       clip-path="url(#clipPath69958)" /><path
       style="fill:#8c8c8c;fill-opacity:1;stroke:#ffe24d;stroke-width:0.252481;stroke-dasharray:none;stroke-opacity:1"
       id="connector10pin"
       d="m -7.348966,2.0774043 a 0.54212695,0.53415948 0 0 1 0.252591,0.6008463 0.54212695,0.53415948 0 0 1 -0.5236544,0.3959088 0.54212695,0.53415948 0 0 1 -0.5236545,-0.3959088 0.54212695,0.53415948 0 0 1 0.252591,-0.6008463"
       transform="matrix(1,0,0,-1,15.235854,20.376498)"
       clip-path="url(#clipPath69958)" /><path
       style="fill:#8c8c8c;fill-opacity:1;stroke:#ffe24d;stroke-width:0.252481;stroke-dasharray:none;stroke-opacity:1"
       id="connector11pin"
       d="m -7.348966,2.0774043 a 0.54212695,0.53415948 0 0 1 0.252591,0.6008463 0.54212695,0.53415948 0 0 1 -0.5236544,0.3959088 0.54212695,0.53415948 0 0 1 -0.5236545,-0.3959088 0.54212695,0.53415948 0 0 1 0.252591,-0.6008463"
       transform="matrix(1,0,0,-1,17.783696,20.376498)"
       clip-path="url(#clipPath69958)" /><path
       style="fill:#8c8c8c;fill-opacity:1;stroke:#ffe24d;stroke-width:0.252481;stroke-dasharray:none;stroke-opacity:1"
       id="connector12pin"
       d="m -7.348966,2.0774043 a 0.54212695,0.53415948 0 0 1 0.252591,0.6008463 0.54212695,0.53415948 0 0 1 -0.5236544,0.3959088 0.54212695,0.53415948 0 0 1 -0.5236545,-0.3959088 0.54212695,0.53415948 0 0 1 0.252591,-0.6008463"
       transform="matrix(1,0,0,-1,20.310466,20.376498)"
       clip-path="url(#clipPath69958)" /><path
       style="fill:#8c8c8c;fill-opacity:1;stroke:#ffe24d;stroke-width:0.252481;stroke-dasharray:none;stroke-opacity:1"
       id="connector13pin"
       d="m -7.348966,2.0774043 a 0.54212695,0.53415948 0 0 1 0.252591,0.6008463 0.54212695,0.53415948 0 0 1 -0.5236544,0.3959088 0.54212695,0.53415948 0 0 1 -0.5236545,-0.3959088 0.54212695,0.53415948 0 0 1 0.252591,-0.6008463"
       transform="matrix(1,0,0,-1,22.858308,20.376498)"
       clip-path="url(#clipPath69958)" /><path
       style="fill:#8c8c8c;fill-opacity:1;stroke:#ffe24d;stroke-width:0.252481;stroke-dasharray:none;stroke-opacity:1"
       id="connector14pin"
       d="m -7.348966,2.0774043 a 0.54212695,0.53415948 0 0 1 0.252591,0.6008463 0.54212695,0.53415948 0 0 1 -0.5236544,0.3959088 0.54212695,0.53415948 0 0 1 -0.5236545,-0.3959088 0.54212695,0.53415948 0 0 1 0.252591,-0.6008463"
       transform="matrix(1,0,0,-1,25.403696,20.376498)"
       clip-path="url(#clipPath69958)" /><path
       style="fill:#8c8c8c;fill-opacity:1;stroke:#ffe24d;stroke-width:0.252481;stroke-dasharray:none;stroke-opacity:1"
       id="connector15pin"
       d="m -7.348966,2.0774043 a 0.54212695,0.53415948 0 0 1 0.252591,0.6008463 0.54212695,0.53415948 0 0 1 -0.5236544,0.3959088 0.54212695,0.53415948 0 0 1 -0.5236545,-0.3959088 0.54212695,0.53415948 0 0 1 0.252591,-0.6008463"
       transform="matrix(1,0,0,-1,27.951537,20.376498)"
       clip-path="url(#clipPath69958)" /><text
       xml:space="preserve"
       style="font-style:normal;font-variant:normal;font-weight:normal;font-stretch:normal;font-size:0.987778px;line-height:1.25;font-family:OCRA;-inkscape-font-specification:'OCRA, Normal';font-variant-ligatures:normal;font-variant-caps:normal;font-variant-numeric:normal;font-variant-east-asian:normal;letter-spacing:0px;word-spacing:0px;fill:#ffffff;fill-opacity:1;stroke:none;stroke-width:0.265177"
       x="10.865294"
       y="-12.125091"
       id="text70046"
       transform="rotate(90)"><tspan
         id="tspan70813"
         x="10.865294"
         y="-12.125091"
         style="-inkscape-font-specification:'OCRA, Normal';font-family:OCRA;font-weight:normal;font-style:normal;font-stretch:normal;font-variant:normal;font-size:0.98777778px;font-variant-ligatures:normal;font-variant-caps:normal;font-variant-numeric:normal;font-variant-east-asian:normal">PIN ASGN.</tspan></text><path
       style="fill:none;stroke:#ffffff;stroke-width:0.185699;stroke-linecap:butt;stroke-linejoin:miter;stroke-dasharray:none;stroke-opacity:1"
       d="M 11.841729,9.8640208 V 18.164021"
       id="path70263" /><path
       style="fill:none;stroke:#ffffff;stroke-width:0.208033;stroke-linecap:butt;stroke-linejoin:miter;stroke-dasharray:none;stroke-opacity:1"
       d="M 11.867384,14.005932 H 1.4508437"
       id="path70752" /><text
       xml:space="preserve"
       style="font-style:normal;font-variant:normal;font-weight:normal;font-stretch:normal;font-size:0.987778px;line-height:1.25;font-family:OCRA;-inkscape-font-specification:'OCRA, Normal';font-variant-ligatures:normal;font-variant-caps:normal;font-variant-numeric:normal;font-variant-east-asian:normal;letter-spacing:0px;word-spacing:0px;fill:#ffffff;fill-opacity:1;stroke:none;stroke-width:0.265177"
       x="10.791704"
       y="-10.675151"
       id="text70775"
       transform="rotate(90)"><tspan
         id="tspan70795"
         x="10.791704"
         y="-10.675151"
         style="-inkscape-font-specification:'OCRA, Normal';font-family:OCRA;font-weight:normal;font-style:normal;font-stretch:normal;font-variant:normal;font-size:0.98777778px;font-variant-ligatures:normal;font-variant-caps:normal;font-variant-numeric:normal;font-variant-east-asian:normal">P019 P017</tspan><tspan
         id="tspan70797"
         x="10.791704"
         y="-9.4404287"
         style="-inkscape-font-specification:'OCRA, Normal';font-family:OCRA;font-weight:normal;font-style:normal;font-stretch:normal;font-variant:normal;font-size:0.98777778px;font-variant-ligatures:normal;font-variant-caps:normal;font-variant-numeric:normal;font-variant-east-asian:normal">SWDI P023</tspan><tspan
         id="tspan70799"
         x="10.791704"
         y="-8.2057056"
         style="-inkscape-font-specification:'OCRA, Normal';font-family:OCRA;font-weight:normal;font-style:normal;font-stretch:normal;font-variant:normal;font-size:0.98777778px;font-variant-ligatures:normal;font-variant-caps:normal;font-variant-numeric:normal;font-variant-east-asian:normal">SWDC +V</tspan><tspan
         id="tspan70801"
         x="10.791704"
         y="-6.9709835"
         style="-inkscape-font-specification:'OCRA, Normal';font-family:OCRA;font-weight:normal;font-style:normal;font-stretch:normal;font-variant:normal;font-size:0.98777778px;font-variant-ligatures:normal;font-variant-caps:normal;font-variant-numeric:normal;font-variant-east-asian:normal">P025 GND</tspan><tspan
         id="tspan70803"
         x="10.791704"
         y="-5.7362609"
         style="-inkscape-font-specification:'OCRA, Normal';font-family:OCRA;font-weight:normal;font-style:normal;font-stretch:normal;font-variant:normal;font-size:0.98777778px;font-variant-ligatures:normal;font-variant-caps:normal;font-variant-numeric:normal;font-variant-east-asian:normal">P003 P021</tspan><tspan
         id="tspan70805"
         x="10.791704"
         y="-4.5015383"
         style="-inkscape-font-specification:'OCRA, Normal';font-family:OCRA;font-weight:normal;font-style:normal;font-stretch:normal;font-variant:normal;font-size:0.98777778px;font-variant-ligatures:normal;font-variant-caps:normal;font-variant-numeric:normal;font-variant-east-asian:normal">P001 P004</tspan><tspan
         id="tspan70807"
         x="10.791704"
         y="-3.2668159"
         style="-inkscape-font-specification:'OCRA, Normal';font-family:OCRA;font-weight:normal;font-style:normal;font-stretch:normal;font-variant:normal;font-size:0.98777778px;font-variant-ligatures:normal;font-variant-caps:normal;font-variant-numeric:normal;font-variant-east-asian:normal">P002 P006</tspan><tspan
         id="tspan70809"
         x="10.791704"
         y="-2.0320933"
         style="-inkscape-font-specification:'OCRA, Normal';font-family:OCRA;font-weight:normal;font-style:normal;font-stretch:normal;font-variant:normal;font-size:0.98777778px;font-variant-ligatures:normal;font-variant-caps:normal;font-variant-numeric:normal;font-variant-east-asian:normal">P000 P005</tspan><tspan
         id="tspan70811"
         x="10.791704"
         y="-0.79737079"
         style="-inkscape-font-specification:'OCRA, Normal';font-family:OCRA;font-weight:normal;font-style:normal;font-stretch:normal;font-variant:normal;font-size:0.98777778px;font-variant-ligatures:normal;font-variant-caps:normal;font-variant-numeric:normal;font-variant-east-asian:normal" /></text><path
       style="fill:none;fill-opacity:1;stroke:#182209;stroke-width:0.127;stroke-linecap:butt;stroke-linejoin:miter;stroke-dasharray:none;stroke-opacity:1"
       d="m 23.265224,13.085381 c -0.595313,0 -0.595313,0 -0.595313,0"
       id="path96816" /><path
       style="color:#000000;fill:#182209;-inkscape-stroke:none"
       d="m 22.914062,11.310547 v 0.257812 h 0.21875 v 1.052735 h 0.257813 v -1.310547 z"
       id="path96811" /><path
       style="color:#000000;fill:#182209;-inkscape-stroke:none"
       d="m 22.523437,13.132813 v 0.71289 h 0.265625 v -0.71289 z"
       id="path96656" /><path
       style="color:#000000;fill:#182209;-inkscape-stroke:none"
       d="m 23.650391,11.320313 v 2.513671 h 0.263671 v -2.25 h 0.513672 v 4.201172 H 22.789062 V 13.71875 h -0.345703 v 0.263672 h 0.08203 v 2.066406 h 2.166015 v -4.728515 z"
       id="path75093" /><rect
       style="fill:#182209;fill-opacity:1;stroke:none;stroke-width:0.133578;stroke-dasharray:none;stroke-opacity:1"
       id="rect88047"
       width="1.9176587"
       height="1.2394625"
       x="13.694324"
       y="-24.214247"
       transform="rotate(90)" /><g
       id="g96626"
       transform="translate(18.152171,7.5431338)"><path
         d="M 5.0736833,4.7213582 H 4.5334945 c -0.016514,0 -0.029958,-0.010754 -0.029958,-0.023963 V 4.445321 c 0,-0.013209 0.013444,-0.023963 0.029958,-0.023963 h 0.5400843 c 0.01662,0 0.029958,0.010754 0.029958,0.023963 v 0.2520745 c 1.059e-4,0.013209 -0.013338,0.023963 -0.029852,0.023963 z"
         fill="#dcdcdc"
         id="path96622"
         style="stroke-width:0.0333992" /><path
         d="M 4.6411513,4.4213597 H 4.9632746 V 4.7213582 H 4.6411513 Z"
         fill="#3799b0"
         id="path96624"
         style="fill:#4f4f43;fill-opacity:1;stroke-width:0.0333992" /></g><g
       id="g96620"
       transform="rotate(90,9.8886878,17.941637)"><path
         d="M 5.0736833,4.7213582 H 4.5334945 c -0.016514,0 -0.029958,-0.010754 -0.029958,-0.023963 V 4.445321 c 0,-0.013209 0.013444,-0.023963 0.029958,-0.023963 h 0.5400843 c 0.01662,0 0.029958,0.010754 0.029958,0.023963 v 0.2520745 c 1.059e-4,0.013209 -0.013338,0.023963 -0.029852,0.023963 z"
         fill="#dcdcdc"
         id="path91293"
         style="stroke-width:0.0333992" /><path
         d="M 4.6411513,4.4213597 H 4.9632746 V 4.7213582 H 4.6411513 Z"
         fill="#3799b0"
         id="path91295"
         style="fill:#4f4f43;fill-opacity:1;stroke-width:0.0333992" /></g><path
       d="m 22.502448,13.144058 v -0.119092 c 0,-0.0036 0.01075,-0.0066 0.02396,-0.0066 h 0.252074 c 0.01321,0 0.02396,0.003 0.02396,0.0066 v 0.119069 c 0,0.0037 -0.01075,0.0066 -0.02396,0.0066 h -0.252074 c -0.01321,2.4e-5 -0.02396,-0.0029 -0.02396,-0.0066 z"
       fill="#dcdcdc"
       id="path96628"
       style="fill:#ffe24d;fill-opacity:1;stroke-width:0.0156822" /><path
       d="m 22.502448,12.68803 v -0.119093 c 0,-0.0036 0.01075,-0.0066 0.02396,-0.0066 h 0.252074 c 0.01321,0 0.02396,0.003 0.02396,0.0066 v 0.11907 c 0,0.0037 -0.01075,0.0066 -0.02396,0.0066 h -0.252074 c -0.01321,2.3e-5 -0.02396,-0.0029 -0.02396,-0.0066 z"
       fill="#dcdcdc"
       id="path96636"
       style="fill:#ffe24d;fill-opacity:1;stroke-width:0.0156822" /><g
       id="g96909"
       transform="rotate(90,10.112637,17.761527)"><path
         d="m 9.4447038,8.4083252 v 0.9003133 c 0,0.027523 -0.021508,0.04993 -0.047926,0.04993 H 8.8926304 c -0.026418,0 -0.047926,-0.022407 -0.047926,-0.04993 V 8.4084994 c 0,-0.0277 0.021508,-0.04993 0.047926,-0.04993 h 0.5041481 c 0.026418,-1.765e-4 0.047926,0.02223 0.047926,0.049753 z"
         fill="#dcdcdc"
         id="path96899"
         style="stroke-width:0.0609782" /><path
         d="M 8.8447078,9.1292107 V 8.5923394 h 0.599996 v 0.5368713 z"
         fill="#3799b0"
         id="path96901"
         style="fill:#9a916c;fill-opacity:1;stroke-width:0.0609782" /></g><g
       id="g96915"
       transform="rotate(90,8.8041893,16.45308)"><path
         d="m 9.4447038,8.4083252 v 0.9003133 c 0,0.027523 -0.021508,0.04993 -0.047926,0.04993 H 8.8926304 c -0.026418,0 -0.047926,-0.022407 -0.047926,-0.04993 V 8.4084994 c 0,-0.0277 0.021508,-0.04993 0.047926,-0.04993 h 0.5041481 c 0.026418,-1.765e-4 0.047926,0.02223 0.047926,0.049753 z"
         fill="#dcdcdc"
         id="path96911"
         style="stroke-width:0.0609782" /><path
         d="M 8.8447078,9.1292107 V 8.5923394 h 0.599996 v 0.5368713 z"
         fill="#3799b0"
         id="path96913"
         style="fill:#9a916c;fill-opacity:1;stroke-width:0.0609782" /></g><text
       xml:space="preserve"
       style="font-style:normal;font-variant:normal;font-weight:normal;font-stretch:normal;font-size:0.917222px;line-height:1.25;font-family:OCRA;-inkscape-font-specification:'OCRA, Normal';font-variant-ligatures:normal;font-variant-caps:normal;font-variant-numeric:normal;font-variant-east-asian:normal;letter-spacing:0px;word-spacing:0px;fill:#ffffff;fill-opacity:1;stroke:none;stroke-width:0.265177"
       x="20.281382"
       y="17.178736"
       id="text97274"><tspan
         id="tspan97276"
         x="20.281382"
         y="17.178736"
         style="-inkscape-font-specification:'OCRA, Normal';font-family:OCRA;font-weight:normal;font-style:normal;font-stretch:normal;font-variant:normal;font-size:0.91722222px;font-variant-ligatures:normal;font-variant-caps:normal;font-variant-numeric:normal;font-variant-east-asian:normal">TYBLE16</tspan></text><text
       xml:space="preserve"
       style="font-style:normal;font-variant:normal;font-weight:normal;font-stretch:normal;font-size:0.705556px;line-height:1.25;font-family:OCRA;-inkscape-font-specification:'OCRA, Normal';font-variant-ligatures:normal;font-variant-caps:normal;font-variant-numeric:normal;font-variant-east-asian:normal;letter-spacing:0px;word-spacing:0px;fill:#ffffff;fill-opacity:1;stroke:none;stroke-width:0.265177"
       x="15.206601"
       y="12.665223"
       id="text97280"><tspan
         id="tspan97296"
         x="15.206601"
         y="12.665223"
         style="-inkscape-font-specification:'OCRA, Normal';font-family:OCRA;font-weight:normal;font-style:normal;font-stretch:normal;font-variant:normal;font-size:0.70555556px;font-variant-ligatures:normal;font-variant-caps:normal;font-variant-numeric:normal;font-variant-east-asian:normal"> TAIYO YUDEN</tspan><tspan
         id="tspan97298"
         x="15.206601"
         y="13.547168"
         style="-inkscape-font-specification:'OCRA, Normal';font-family:OCRA;font-weight:normal;font-style:normal;font-stretch:normal;font-variant:normal;font-size:0.70555556px;font-variant-ligatures:normal;font-variant-caps:normal;font-variant-numeric:normal;font-variant-east-asian:normal">EYSGJN</tspan><tspan
         id="tspan97300"
         x="15.206601"
         y="14.429113"
         style="-inkscape-font-specification:'OCRA, Normal';font-family:OCRA;font-weight:normal;font-style:normal;font-stretch:normal;font-variant:normal;font-size:0.70555556px;font-variant-ligatures:normal;font-variant-caps:normal;font-variant-numeric:normal;font-variant-east-asian:normal">F1 AWY-WX</tspan></text></g></svg>
